<svg xmlns="http://www.w3.org/2000/svg" width="3508" height="2480" viewBox="0 0 3508 2480">
<rect width="100%" height="100%" fill="white"/>
<defs><style>text{font-family:Arial,Helvetica,sans-serif;fill:black}.b{font-weight:700}</style></defs>
<text x="1754.0" y="82.6" font-size="42" text-anchor="middle" class="b">Diagramme de classes complet - Learnix AI</text>
<rect x="120" y="170" width="310" height="158" fill="white" stroke="black" stroke-width="2"/>
<text x="275.0" y="207.2" font-size="24" text-anchor="middle" class="b">Role</text>
<line x1="120" y1="226" x2="430" y2="226" stroke="black" stroke-width="2"/>
<text x="134" y="248" font-size="18" text-anchor="start">id</text>
<text x="134" y="276" font-size="18" text-anchor="start">nom</text>
<text x="134" y="304" font-size="18" text-anchor="start">permissions</text>
<rect x="520" y="170" width="310" height="214" fill="white" stroke="black" stroke-width="2"/>
<text x="675.0" y="207.2" font-size="24" text-anchor="middle" class="b">Utilisateur</text>
<line x1="520" y1="226" x2="830" y2="226" stroke="black" stroke-width="2"/>
<text x="534" y="248" font-size="18" text-anchor="start">id</text>
<text x="534" y="276" font-size="18" text-anchor="start">nom</text>
<text x="534" y="304" font-size="18" text-anchor="start">email</text>
<text x="534" y="332" font-size="18" text-anchor="start">motDePasse</text>
<text x="534" y="360" font-size="18" text-anchor="start">statut</text>
<rect x="120" y="500" width="310" height="102" fill="white" stroke="black" stroke-width="2"/>
<text x="275.0" y="537.2" font-size="24" text-anchor="middle" class="b">Administrateur</text>
<line x1="120" y1="556" x2="430" y2="556" stroke="black" stroke-width="2"/>
<text x="134" y="578" font-size="18" text-anchor="start">gérerPlateforme()</text>
<rect x="500" y="500" width="310" height="130" fill="white" stroke="black" stroke-width="2"/>
<text x="655.0" y="537.2" font-size="24" text-anchor="middle" class="b">Directeur</text>
<line x1="500" y1="556" x2="810" y2="556" stroke="black" stroke-width="2"/>
<text x="514" y="578" font-size="18" text-anchor="start">statutValidation</text>
<text x="514" y="606" font-size="18" text-anchor="start">soumettreDemande()</text>
<rect x="880" y="500" width="310" height="130" fill="white" stroke="black" stroke-width="2"/>
<text x="1035.0" y="537.2" font-size="24" text-anchor="middle" class="b">Enseignant</text>
<line x1="880" y1="556" x2="1190" y2="556" stroke="black" stroke-width="2"/>
<text x="894" y="578" font-size="18" text-anchor="start">mode</text>
<text x="894" y="606" font-size="18" text-anchor="start">statut</text>
<rect x="1260" y="500" width="310" height="130" fill="white" stroke="black" stroke-width="2"/>
<text x="1415.0" y="537.2" font-size="24" text-anchor="middle" class="b">Élève</text>
<line x1="1260" y1="556" x2="1570" y2="556" stroke="black" stroke-width="2"/>
<text x="1274" y="578" font-size="18" text-anchor="start">niveau</text>
<text x="1274" y="606" font-size="18" text-anchor="start">mode</text>
<rect x="1640" y="500" width="310" height="102" fill="white" stroke="black" stroke-width="2"/>
<text x="1795.0" y="537.2" font-size="24" text-anchor="middle" class="b">ÉlèveInvité</text>
<line x1="1640" y1="556" x2="1950" y2="556" stroke="black" stroke-width="2"/>
<text x="1654" y="578" font-size="18" text-anchor="start">mode = invité</text>
<rect x="420" y="880" width="310" height="186" fill="white" stroke="black" stroke-width="2"/>
<text x="575.0" y="917.2" font-size="24" text-anchor="middle" class="b">École</text>
<line x1="420" y1="936" x2="730" y2="936" stroke="black" stroke-width="2"/>
<text x="434" y="958" font-size="18" text-anchor="start">id</text>
<text x="434" y="986" font-size="18" text-anchor="start">nom</text>
<text x="434" y="1014" font-size="18" text-anchor="start">ville</text>
<text x="434" y="1042" font-size="18" text-anchor="start">statut</text>
<rect x="820" y="880" width="310" height="158" fill="white" stroke="black" stroke-width="2"/>
<text x="975.0" y="917.2" font-size="24" text-anchor="middle" class="b">DemandeCreationEcole</text>
<line x1="820" y1="936" x2="1130" y2="936" stroke="black" stroke-width="2"/>
<text x="834" y="958" font-size="18" text-anchor="start">id</text>
<text x="834" y="986" font-size="18" text-anchor="start">statut</text>
<text x="834" y="1014" font-size="18" text-anchor="start">motif</text>
<rect x="1220" y="880" width="310" height="158" fill="white" stroke="black" stroke-width="2"/>
<text x="1375.0" y="917.2" font-size="24" text-anchor="middle" class="b">DemandeEnseignant</text>
<line x1="1220" y1="936" x2="1530" y2="936" stroke="black" stroke-width="2"/>
<text x="1234" y="958" font-size="18" text-anchor="start">id</text>
<text x="1234" y="986" font-size="18" text-anchor="start">message</text>
<text x="1234" y="1014" font-size="18" text-anchor="start">statut</text>
<rect x="260" y="1230" width="310" height="158" fill="white" stroke="black" stroke-width="2"/>
<text x="415.0" y="1267.2" font-size="24" text-anchor="middle" class="b">Classe</text>
<line x1="260" y1="1286" x2="570" y2="1286" stroke="black" stroke-width="2"/>
<text x="274" y="1308" font-size="18" text-anchor="start">id</text>
<text x="274" y="1336" font-size="18" text-anchor="start">nom</text>
<text x="274" y="1364" font-size="18" text-anchor="start">niveau</text>
<rect x="660" y="1230" width="310" height="158" fill="white" stroke="black" stroke-width="2"/>
<text x="815.0" y="1267.2" font-size="24" text-anchor="middle" class="b">Module</text>
<line x1="660" y1="1286" x2="970" y2="1286" stroke="black" stroke-width="2"/>
<text x="674" y="1308" font-size="18" text-anchor="start">id</text>
<text x="674" y="1336" font-size="18" text-anchor="start">nom</text>
<text x="674" y="1364" font-size="18" text-anchor="start">heures</text>
<rect x="1060" y="1230" width="310" height="158" fill="white" stroke="black" stroke-width="2"/>
<text x="1215.0" y="1267.2" font-size="24" text-anchor="middle" class="b">Cours</text>
<line x1="1060" y1="1286" x2="1370" y2="1286" stroke="black" stroke-width="2"/>
<text x="1074" y="1308" font-size="18" text-anchor="start">id</text>
<text x="1074" y="1336" font-size="18" text-anchor="start">titre</text>
<text x="1074" y="1364" font-size="18" text-anchor="start">contenu</text>
<rect x="1460" y="1230" width="310" height="158" fill="white" stroke="black" stroke-width="2"/>
<text x="1615.0" y="1267.2" font-size="24" text-anchor="middle" class="b">EmploiDuTemps</text>
<line x1="1460" y1="1286" x2="1770" y2="1286" stroke="black" stroke-width="2"/>
<text x="1474" y="1308" font-size="18" text-anchor="start">id</text>
<text x="1474" y="1336" font-size="18" text-anchor="start">statut</text>
<text x="1474" y="1364" font-size="18" text-anchor="start">créneaux</text>
<rect x="260" y="1580" width="310" height="158" fill="white" stroke="black" stroke-width="2"/>
<text x="415.0" y="1617.2" font-size="24" text-anchor="middle" class="b">Quiz</text>
<line x1="260" y1="1636" x2="570" y2="1636" stroke="black" stroke-width="2"/>
<text x="274" y="1658" font-size="18" text-anchor="start">id</text>
<text x="274" y="1686" font-size="18" text-anchor="start">titre</text>
<text x="274" y="1714" font-size="18" text-anchor="start">portée</text>
<rect x="660" y="1580" width="310" height="158" fill="white" stroke="black" stroke-width="2"/>
<text x="815.0" y="1617.2" font-size="24" text-anchor="middle" class="b">Examen</text>
<line x1="660" y1="1636" x2="970" y2="1636" stroke="black" stroke-width="2"/>
<text x="674" y="1658" font-size="18" text-anchor="start">id</text>
<text x="674" y="1686" font-size="18" text-anchor="start">titre</text>
<text x="674" y="1714" font-size="18" text-anchor="start">durée</text>
<rect x="1060" y="1580" width="310" height="158" fill="white" stroke="black" stroke-width="2"/>
<text x="1215.0" y="1617.2" font-size="24" text-anchor="middle" class="b">Question</text>
<line x1="1060" y1="1636" x2="1370" y2="1636" stroke="black" stroke-width="2"/>
<text x="1074" y="1658" font-size="18" text-anchor="start">id</text>
<text x="1074" y="1686" font-size="18" text-anchor="start">énoncé</text>
<text x="1074" y="1714" font-size="18" text-anchor="start">points</text>
<rect x="1460" y="1580" width="310" height="158" fill="white" stroke="black" stroke-width="2"/>
<text x="1615.0" y="1617.2" font-size="24" text-anchor="middle" class="b">Réponse</text>
<line x1="1460" y1="1636" x2="1770" y2="1636" stroke="black" stroke-width="2"/>
<text x="1474" y="1658" font-size="18" text-anchor="start">id</text>
<text x="1474" y="1686" font-size="18" text-anchor="start">contenu</text>
<text x="1474" y="1714" font-size="18" text-anchor="start">correcte</text>
<rect x="1860" y="1580" width="310" height="158" fill="white" stroke="black" stroke-width="2"/>
<text x="2015.0" y="1617.2" font-size="24" text-anchor="middle" class="b">Résultat</text>
<line x1="1860" y1="1636" x2="2170" y2="1636" stroke="black" stroke-width="2"/>
<text x="1874" y="1658" font-size="18" text-anchor="start">id</text>
<text x="1874" y="1686" font-size="18" text-anchor="start">score</text>
<text x="1874" y="1714" font-size="18" text-anchor="start">feedback</text>
<rect x="1260" y="690" width="310" height="186" fill="white" stroke="black" stroke-width="2"/>
<text x="1415.0" y="727.2" font-size="24" text-anchor="middle" class="b">ProfilIA</text>
<line x1="1260" y1="746" x2="1570" y2="746" stroke="black" stroke-width="2"/>
<text x="1274" y="768" font-size="18" text-anchor="start">id</text>
<text x="1274" y="796" font-size="18" text-anchor="start">niveauEstimé</text>
<text x="1274" y="824" font-size="18" text-anchor="start">forces</text>
<text x="1274" y="852" font-size="18" text-anchor="start">faiblesses</text>
<rect x="1660" y="690" width="310" height="158" fill="white" stroke="black" stroke-width="2"/>
<text x="1815.0" y="727.2" font-size="24" text-anchor="middle" class="b">RecommandationIA</text>
<line x1="1660" y1="746" x2="1970" y2="746" stroke="black" stroke-width="2"/>
<text x="1674" y="768" font-size="18" text-anchor="start">id</text>
<text x="1674" y="796" font-size="18" text-anchor="start">titre</text>
<text x="1674" y="824" font-size="18" text-anchor="start">priorité</text>
<rect x="2460" y="500" width="310" height="158" fill="white" stroke="black" stroke-width="2"/>
<text x="2615.0" y="537.2" font-size="24" text-anchor="middle" class="b">Notification</text>
<line x1="2460" y1="556" x2="2770" y2="556" stroke="black" stroke-width="2"/>
<text x="2474" y="578" font-size="18" text-anchor="start">id</text>
<text x="2474" y="606" font-size="18" text-anchor="start">titre</text>
<text x="2474" y="634" font-size="18" text-anchor="start">lue</text>
<line x1="430" y1="249.0" x2="520" y2="277.0" stroke="black" stroke-width="2"/>
<text x="475.0" y="253.1" font-size="17" text-anchor="middle">1..*</text>
<line x1="275.0" y1="500" x2="675.0" y2="384" stroke="black" stroke-width="2" stroke-dasharray="12 9"/>
<line x1="662" y1="395" x2="675.0" y2="384" stroke="black" stroke-width="2"/>
<line x1="658" y1="381" x2="675.0" y2="384" stroke="black" stroke-width="2"/>
<text x="475.0" y="432.1" font-size="17" text-anchor="middle">hérite</text>
<line x1="655.0" y1="500" x2="675.0" y2="384" stroke="black" stroke-width="2" stroke-dasharray="12 9"/>
<line x1="679" y1="400" x2="675.0" y2="384" stroke="black" stroke-width="2"/>
<line x1="665" y1="397" x2="675.0" y2="384" stroke="black" stroke-width="2"/>
<text x="665.0" y="432.1" font-size="17" text-anchor="middle">hérite</text>
<line x1="1035.0" y1="500" x2="675.0" y2="384" stroke="black" stroke-width="2" stroke-dasharray="12 9"/>
<line x1="691" y1="381" x2="675.0" y2="384" stroke="black" stroke-width="2"/>
<line x1="687" y1="395" x2="675.0" y2="384" stroke="black" stroke-width="2"/>
<text x="855.0" y="432.1" font-size="17" text-anchor="middle">hérite</text>
<line x1="1415.0" y1="500" x2="675.0" y2="384" stroke="black" stroke-width="2" stroke-dasharray="12 9"/>
<line x1="691" y1="379" x2="675.0" y2="384" stroke="black" stroke-width="2"/>
<line x1="688" y1="393" x2="675.0" y2="384" stroke="black" stroke-width="2"/>
<text x="1045.0" y="432.1" font-size="17" text-anchor="middle">hérite</text>
<line x1="1795.0" y1="500" x2="675.0" y2="384" stroke="black" stroke-width="2" stroke-dasharray="12 9"/>
<line x1="690" y1="378" x2="675.0" y2="384" stroke="black" stroke-width="2"/>
<line x1="689" y1="392" x2="675.0" y2="384" stroke="black" stroke-width="2"/>
<text x="1235.0" y="432.1" font-size="17" text-anchor="middle">hérite</text>
<line x1="655.0" y1="630" x2="575.0" y2="880" stroke="black" stroke-width="2"/>
<text x="615.0" y="745.1" font-size="17" text-anchor="middle">dirige</text>
<line x1="655.0" y1="630" x2="975.0" y2="880" stroke="black" stroke-width="2"/>
<text x="815.0" y="745.1" font-size="17" text-anchor="middle">soumet</text>
<line x1="1035.0" y1="630" x2="1375.0" y2="880" stroke="black" stroke-width="2"/>
<text x="1205.0" y="745.1" font-size="17" text-anchor="middle">demande</text>
<line x1="575.0" y1="1066" x2="415.0" y2="1230" stroke="black" stroke-width="2"/>
<text x="495.0" y="1138.1" font-size="17" text-anchor="middle">1..*</text>
<line x1="570" y1="1309.0" x2="660" y2="1309.0" stroke="black" stroke-width="2"/>
<text x="615.0" y="1299.1" font-size="17" text-anchor="middle">1..*</text>
<line x1="970" y1="1309.0" x2="1060" y2="1309.0" stroke="black" stroke-width="2"/>
<text x="1015.0" y="1299.1" font-size="17" text-anchor="middle">1..*</text>
<line x1="570" y1="1309.0" x2="1460" y2="1309.0" stroke="black" stroke-width="2"/>
<text x="1015.0" y="1299.1" font-size="17" text-anchor="middle">1</text>
<line x1="1215.0" y1="1388" x2="415.0" y2="1580" stroke="black" stroke-width="2"/>
<text x="815.0" y="1474.1" font-size="17" text-anchor="middle">0..*</text>
<line x1="1215.0" y1="1388" x2="815.0" y2="1580" stroke="black" stroke-width="2"/>
<text x="1015.0" y="1474.1" font-size="17" text-anchor="middle">0..*</text>
<line x1="570" y1="1659.0" x2="1060" y2="1659.0" stroke="black" stroke-width="2"/>
<text x="815.0" y="1649.1" font-size="17" text-anchor="middle">1..*</text>
<line x1="1370" y1="1659.0" x2="1460" y2="1659.0" stroke="black" stroke-width="2"/>
<text x="1415.0" y="1649.1" font-size="17" text-anchor="middle">1..*</text>
<line x1="1770" y1="1659.0" x2="1860" y2="1659.0" stroke="black" stroke-width="2"/>
<text x="1815.0" y="1649.1" font-size="17" text-anchor="middle">produit</text>
<line x1="1415.0" y1="630" x2="1415.0" y2="690" stroke="black" stroke-width="2"/>
<text x="1415.0" y="650.1" font-size="17" text-anchor="middle">1</text>
<line x1="1570" y1="783.0" x2="1660" y2="769.0" stroke="black" stroke-width="2"/>
<text x="1615.0" y="766.1" font-size="17" text-anchor="middle">0..*</text>
<polyline points="830,277 2350,275 2350,570 2460,579" fill="none" stroke="black" stroke-width="2"/>
<text x="2350" y="560.1" font-size="17" text-anchor="middle">0..*</text>
</svg>