<svg xmlns="http://www.w3.org/2000/svg" width="3508" height="2480" viewBox="0 0 3508 2480">
<rect width="100%" height="100%" fill="white"/>
<defs><style>text{font-family:Arial,Helvetica,sans-serif;fill:black}.b{font-weight:700}</style></defs>
<text x="1754.0" y="82.6" font-size="42" text-anchor="middle" class="b">Séquence - Génération automatique d&#x27;un quiz à partir d&#x27;un PDF</text>
<rect x="105" y="180" width="290" height="70" fill="white" stroke="black" stroke-width="2"/>
<text x="250" y="222.2" font-size="24" text-anchor="middle" class="b">Utilisateur</text>
<line x1="250" y1="250" x2="250" y2="2240" stroke="black" stroke-width="2" stroke-dasharray="12 9"/>
<rect x="706" y="180" width="290" height="70" fill="white" stroke="black" stroke-width="2"/>
<text x="851" y="222.2" font-size="24" text-anchor="middle" class="b">Frontend</text>
<line x1="851" y1="250" x2="851" y2="2240" stroke="black" stroke-width="2" stroke-dasharray="12 9"/>
<rect x="1307" y="180" width="290" height="70" fill="white" stroke="black" stroke-width="2"/>
<text x="1452" y="222.2" font-size="24" text-anchor="middle" class="b">API /chatbot-upload</text>
<line x1="1452" y1="250" x2="1452" y2="2240" stroke="black" stroke-width="2" stroke-dasharray="12 9"/>
<rect x="1908" y="180" width="290" height="70" fill="white" stroke="black" stroke-width="2"/>
<text x="2053" y="222.2" font-size="24" text-anchor="middle" class="b">Extracteur PDF</text>
<line x1="2053" y1="250" x2="2053" y2="2240" stroke="black" stroke-width="2" stroke-dasharray="12 9"/>
<rect x="2509" y="180" width="290" height="70" fill="white" stroke="black" stroke-width="2"/>
<text x="2654" y="222.2" font-size="24" text-anchor="middle" class="b">Groq IA</text>
<line x1="2654" y1="250" x2="2654" y2="2240" stroke="black" stroke-width="2" stroke-dasharray="12 9"/>
<rect x="3110" y="180" width="290" height="70" fill="white" stroke="black" stroke-width="2"/>
<text x="3255" y="222.2" font-size="24" text-anchor="middle" class="b">MySQL</text>
<line x1="3255" y1="250" x2="3255" y2="2240" stroke="black" stroke-width="2" stroke-dasharray="12 9"/>
<line x1="250" y1="350" x2="851" y2="350" stroke="black" stroke-width="2"/>
<polygon points="851,350 835,357 835,342" fill="black" stroke="black" stroke-width="1"/>
<text x="550.5" y="330.3" font-size="21" text-anchor="middle">Importer PDF</text>
<line x1="851" y1="495" x2="1452" y2="495" stroke="black" stroke-width="2"/>
<polygon points="1452,495 1436,502 1436,487" fill="black" stroke="black" stroke-width="1"/>
<text x="1151.5" y="475.3" font-size="21" text-anchor="middle">POST fichier PDF</text>
<line x1="1452" y1="640" x2="2053" y2="640" stroke="black" stroke-width="2"/>
<polygon points="2053,640 2037,647 2037,632" fill="black" stroke="black" stroke-width="1"/>
<text x="1752.5" y="620.3" font-size="21" text-anchor="middle">Extraire texte</text>
<line x1="2053" y1="785" x2="1452" y2="785" stroke="black" stroke-width="2"/>
<polygon points="1452,785 1467,777 1467,792" fill="black" stroke="black" stroke-width="1"/>
<text x="1752.5" y="765.3" font-size="21" text-anchor="middle">Texte nettoyé</text>
<line x1="1452" y1="930" x2="2654" y2="930" stroke="black" stroke-width="2"/>
<polygon points="2654,930 2638,937 2638,922" fill="black" stroke="black" stroke-width="1"/>
<text x="2053.0" y="910.3" font-size="21" text-anchor="middle">Prompt génération quiz</text>
<line x1="2654" y1="1075" x2="1452" y2="1075" stroke="black" stroke-width="2"/>
<polygon points="1452,1075 1467,1067 1467,1082" fill="black" stroke="black" stroke-width="1"/>
<text x="2053.0" y="1055.3" font-size="21" text-anchor="middle">Questions structurées</text>
<line x1="1452" y1="1220" x2="3255" y2="1220" stroke="black" stroke-width="2"/>
<polygon points="3255,1220 3239,1227 3239,1212" fill="black" stroke="black" stroke-width="1"/>
<text x="2353.5" y="1200.3" font-size="21" text-anchor="middle">Sauvegarder contexte si nécessaire</text>
<line x1="1452" y1="1365" x2="250" y2="1365" stroke="black" stroke-width="2"/>
<polygon points="250,1365 265,1357 265,1372" fill="black" stroke="black" stroke-width="1"/>
<text x="851.0" y="1345.3" font-size="21" text-anchor="middle">Retourner quiz généré</text>
</svg>