<svg xmlns="http://www.w3.org/2000/svg" width="3508" height="2480" viewBox="0 0 3508 2480">
<rect width="100%" height="100%" fill="white"/>
<defs><style>text{font-family:Arial,Helvetica,sans-serif;fill:black}.b{font-weight:700}</style></defs>
<text x="1754.0" y="82.6" font-size="42" text-anchor="middle" class="b">Diagramme d&#x27;activité - Gestion d&#x27;une école par le directeur</text>
<ellipse cx="1750.0" cy="180.0" rx="60.0" ry="30.0" fill="black" stroke="black" stroke-width="2"/>
<rect x="1490.0" y="270.0" width="520" height="80" fill="white" stroke="black" stroke-width="2"/>
<text x="1750" y="317.2" font-size="24" text-anchor="middle">Se connecter comme directeur</text>
<polygon points="1750,402.5 1980.0,470 1750,537.5 1520.0,470" fill="white" stroke="black" stroke-width="2"/>
<text x="1750" y="476.3" font-size="21" text-anchor="middle">École approuvée ?</text>
<rect x="620.0" y="650.0" width="560" height="80" fill="white" stroke="black" stroke-width="2"/>
<text x="900" y="697.2" font-size="24" text-anchor="middle">Soumettre demande de création d&#x27;école</text>
<rect x="620.0" y="810.0" width="560" height="80" fill="white" stroke="black" stroke-width="2"/>
<text x="900" y="857.2" font-size="24" text-anchor="middle">Attendre décision administrateur</text>
<rect x="1470.0" y="650.0" width="560" height="80" fill="white" stroke="black" stroke-width="2"/>
<text x="1750" y="697.2" font-size="24" text-anchor="middle">Accéder au tableau de bord directeur</text>
<rect x="1470.0" y="810.0" width="560" height="80" fill="white" stroke="black" stroke-width="2"/>
<text x="1750" y="857.2" font-size="24" text-anchor="middle">Gérer école, classes et modules</text>
<rect x="1470.0" y="970.0" width="560" height="80" fill="white" stroke="black" stroke-width="2"/>
<text x="1750" y="1017.2" font-size="24" text-anchor="middle">Traiter demandes enseignants</text>
<rect x="1470.0" y="1130.0" width="560" height="80" fill="white" stroke="black" stroke-width="2"/>
<text x="1750" y="1177.2" font-size="24" text-anchor="middle">Gérer élèves et affectations</text>
<rect x="1470.0" y="1290.0" width="560" height="80" fill="white" stroke="black" stroke-width="2"/>
<text x="1750" y="1337.2" font-size="24" text-anchor="middle">Créer ou modifier emploi du temps</text>
<rect x="1470.0" y="1450.0" width="560" height="80" fill="white" stroke="black" stroke-width="2"/>
<text x="1750" y="1497.2" font-size="24" text-anchor="middle">Consulter statistiques école</text>
<line x1="1750" y1="180" x2="1750" y2="270" stroke="black" stroke-width="2"/>
<polygon points="1750,270 1742,254 1757,254" fill="black" stroke="black" stroke-width="1"/>
<line x1="1750" y1="350" x2="1750" y2="405" stroke="black" stroke-width="2"/>
<polygon points="1750,405 1742,389 1757,389" fill="black" stroke="black" stroke-width="1"/>
<line x1="1560" y1="500" x2="900" y2="650" stroke="black" stroke-width="2"/>
<polygon points="900,650 913,639 916,653" fill="black" stroke="black" stroke-width="1"/>
<text x="1230" y="566.6" font-size="22" text-anchor="middle">Non</text>
<line x1="900" y1="730" x2="900" y2="810" stroke="black" stroke-width="2"/>
<polygon points="900,810 892,794 907,794" fill="black" stroke="black" stroke-width="1"/>
<line x1="1940" y1="500" x2="1750" y2="650" stroke="black" stroke-width="2"/>
<polygon points="1750,650 1757,634 1766,646" fill="black" stroke="black" stroke-width="1"/>
<text x="1980" y="566.6" font-size="22" text-anchor="middle">Oui</text>
<line x1="1750" y1="730" x2="1750" y2="810" stroke="black" stroke-width="2"/>
<polygon points="1750,810 1742,794 1757,794" fill="black" stroke="black" stroke-width="1"/>
<line x1="1750" y1="890" x2="1750" y2="970" stroke="black" stroke-width="2"/>
<polygon points="1750,970 1742,954 1757,954" fill="black" stroke="black" stroke-width="1"/>
<line x1="1750" y1="1050" x2="1750" y2="1130" stroke="black" stroke-width="2"/>
<polygon points="1750,1130 1742,1114 1757,1114" fill="black" stroke="black" stroke-width="1"/>
<line x1="1750" y1="1210" x2="1750" y2="1290" stroke="black" stroke-width="2"/>
<polygon points="1750,1290 1742,1274 1757,1274" fill="black" stroke="black" stroke-width="1"/>
<line x1="1750" y1="1370" x2="1750" y2="1450" stroke="black" stroke-width="2"/>
<polygon points="1750,1450 1742,1434 1757,1434" fill="black" stroke="black" stroke-width="1"/>
<ellipse cx="1750.0" cy="1700.0" rx="60.0" ry="30.0" fill="white" stroke="black" stroke-width="2"/>
<ellipse cx="1750.0" cy="1700.0" rx="45.0" ry="15.0" fill="black" stroke="black" stroke-width="2"/>
<line x1="1750" y1="1530" x2="1750" y2="1670" stroke="black" stroke-width="2"/>
<polygon points="1750,1670 1742,1654 1757,1654" fill="black" stroke="black" stroke-width="1"/>
<line x1="900" y1="890" x2="1690" y2="1670" stroke="black" stroke-width="2"/>
<polygon points="1690,1670 1673,1664 1684,1653" fill="black" stroke="black" stroke-width="1"/>
</svg>