<svg xmlns="http://www.w3.org/2000/svg" width="3508" height="2480" viewBox="0 0 3508 2480">
<rect width="100%" height="100%" fill="white"/>
<defs><style>text{font-family:Arial,Helvetica,sans-serif;fill:black}.b{font-weight:700}</style></defs>
<text x="1754.0" y="82.6" font-size="42" text-anchor="middle" class="b">Diagramme de packages - Learnix AI</text>
<rect x="260" y="260" width="620" height="360" fill="white" stroke="black" stroke-width="2"/>
<rect x="260" y="260" width="260" height="46" fill="white" stroke="black" stroke-width="2"/>
<text x="390" y="292.2" font-size="24" text-anchor="middle" class="b">frontend</text>
<text x="320" y="365" font-size="24" text-anchor="start">- pages</text>
<text x="320" y="420" font-size="24" text-anchor="start">- components</text>
<text x="320" y="475" font-size="24" text-anchor="start">- services</text>
<text x="320" y="530" font-size="24" text-anchor="start">- context</text>
<rect x="1180" y="260" width="620" height="360" fill="white" stroke="black" stroke-width="2"/>
<rect x="1180" y="260" width="260" height="46" fill="white" stroke="black" stroke-width="2"/>
<text x="1310" y="292.2" font-size="24" text-anchor="middle" class="b">backend.app</text>
<text x="1240" y="365" font-size="24" text-anchor="start">- routes auth</text>
<text x="1240" y="420" font-size="24" text-anchor="start">- quiz</text>
<text x="1240" y="475" font-size="24" text-anchor="start">- chatbot</text>
<text x="1240" y="530" font-size="24" text-anchor="start">- PDF</text>
<rect x="2100" y="260" width="620" height="360" fill="white" stroke="black" stroke-width="2"/>
<rect x="2100" y="260" width="260" height="46" fill="white" stroke="black" stroke-width="2"/>
<text x="2230" y="292.2" font-size="24" text-anchor="middle" class="b">learnix.security</text>
<text x="2160" y="365" font-size="24" text-anchor="start">- JWT</text>
<text x="2160" y="420" font-size="24" text-anchor="start">- roles</text>
<text x="2160" y="475" font-size="24" text-anchor="start">- reset token</text>
<rect x="260" y="920" width="620" height="360" fill="white" stroke="black" stroke-width="2"/>
<rect x="260" y="920" width="260" height="46" fill="white" stroke="black" stroke-width="2"/>
<text x="390" y="952.2" font-size="24" text-anchor="middle" class="b">learnix.schools</text>
<text x="320" y="1025" font-size="24" text-anchor="start">- écoles</text>
<text x="320" y="1080" font-size="24" text-anchor="start">- classes</text>
<text x="320" y="1135" font-size="24" text-anchor="start">- modules</text>
<text x="320" y="1190" font-size="24" text-anchor="start">- demandes</text>
<rect x="1180" y="920" width="620" height="360" fill="white" stroke="black" stroke-width="2"/>
<rect x="1180" y="920" width="260" height="46" fill="white" stroke="black" stroke-width="2"/>
<text x="1310" y="952.2" font-size="24" text-anchor="middle" class="b">learnix.platform</text>
<text x="1240" y="1025" font-size="24" text-anchor="start">- dashboard</text>
<text x="1240" y="1080" font-size="24" text-anchor="start">- utilisateurs</text>
<text x="1240" y="1135" font-size="24" text-anchor="start">- rapports</text>
<text x="1240" y="1190" font-size="24" text-anchor="start">- audit</text>
<rect x="2100" y="920" width="620" height="360" fill="white" stroke="black" stroke-width="2"/>
<rect x="2100" y="920" width="260" height="46" fill="white" stroke="black" stroke-width="2"/>
<text x="2230" y="952.2" font-size="24" text-anchor="middle" class="b">learnix.schedule</text>
<text x="2160" y="1025" font-size="24" text-anchor="start">- disponibilités</text>
<text x="2160" y="1080" font-size="24" text-anchor="start">- génération planning</text>
<rect x="760" y="1580" width="620" height="360" fill="white" stroke="black" stroke-width="2"/>
<rect x="760" y="1580" width="260" height="46" fill="white" stroke="black" stroke-width="2"/>
<text x="890" y="1612.2" font-size="24" text-anchor="middle" class="b">learnix.ai</text>
<text x="820" y="1685" font-size="24" text-anchor="start">- profil IA</text>
<text x="820" y="1740" font-size="24" text-anchor="start">- recommandations</text>
<rect x="1680" y="1580" width="620" height="360" fill="white" stroke="black" stroke-width="2"/>
<rect x="1680" y="1580" width="260" height="46" fill="white" stroke="black" stroke-width="2"/>
<text x="1810" y="1612.2" font-size="24" text-anchor="middle" class="b">learnix.database</text>
<text x="1740" y="1685" font-size="24" text-anchor="start">- connexion MySQL</text>
<text x="1740" y="1740" font-size="24" text-anchor="start">- helpers schéma</text>
<line x1="880" y1="440" x2="1180" y2="440" stroke="black" stroke-width="2" stroke-dasharray="12 9"/>
<line x1="1164" y1="447" x2="1180" y2="440" stroke="black" stroke-width="2"/>
<line x1="1164" y1="432" x2="1180" y2="440" stroke="black" stroke-width="2"/>
<line x1="1800" y1="440" x2="2100" y2="440" stroke="black" stroke-width="2" stroke-dasharray="12 9"/>
<line x1="2084" y1="447" x2="2100" y2="440" stroke="black" stroke-width="2"/>
<line x1="2084" y1="432" x2="2100" y2="440" stroke="black" stroke-width="2"/>
<line x1="1490" y1="620" x2="570" y2="920" stroke="black" stroke-width="2" stroke-dasharray="12 9"/>
<line x1="582" y1="908" x2="570" y2="920" stroke="black" stroke-width="2"/>
<line x1="586" y1="922" x2="570" y2="920" stroke="black" stroke-width="2"/>
<line x1="1490" y1="620" x2="1490" y2="920" stroke="black" stroke-width="2" stroke-dasharray="12 9"/>
<line x1="1482" y1="904" x2="1490" y2="920" stroke="black" stroke-width="2"/>
<line x1="1497" y1="904" x2="1490" y2="920" stroke="black" stroke-width="2"/>
<line x1="1490" y1="620" x2="2410" y2="920" stroke="black" stroke-width="2" stroke-dasharray="12 9"/>
<line x1="2393" y1="922" x2="2410" y2="920" stroke="black" stroke-width="2"/>
<line x1="2397" y1="908" x2="2410" y2="920" stroke="black" stroke-width="2"/>
<line x1="1490" y1="1280" x2="1990" y2="1580" stroke="black" stroke-width="2" stroke-dasharray="12 9"/>
<line x1="1973" y1="1578" x2="1990" y2="1580" stroke="black" stroke-width="2"/>
<line x1="1980" y1="1565" x2="1990" y2="1580" stroke="black" stroke-width="2"/>
<line x1="2410" y1="1280" x2="1990" y2="1580" stroke="black" stroke-width="2" stroke-dasharray="12 9"/>
<line x1="1998" y1="1565" x2="1990" y2="1580" stroke="black" stroke-width="2"/>
<line x1="2006" y1="1577" x2="1990" y2="1580" stroke="black" stroke-width="2"/>
<line x1="1070" y1="1580" x2="1680" y2="1760" stroke="black" stroke-width="2" stroke-dasharray="12 9"/>
<line x1="1663" y1="1762" x2="1680" y2="1760" stroke="black" stroke-width="2"/>
<line x1="1667" y1="1748" x2="1680" y2="1760" stroke="black" stroke-width="2"/>
</svg>